<svg xmlns="http://www.w3.org/2000/svg" width="1024" height="318" viewBox="0 0 4360.66 1354.26"><g transform="translate(-91.21,-121.2) scale(1.44173)"><g><defs><clipPath id="clip63"><path d="M434.8 419.46C430.52 329.54 394.17 239.85 326.28 186.46C328.47 246.45 350.01 325.14 366.97 424.2L434.8 419.46Z"/></clipPath><clipPath id="clip64"><path d="M434.8 419.46C430.52 329.54 394.17 239.85 326.28 186.46C328.47 246.45 350.01 325.14 366.97 424.2L434.8 419.46Z"/></clipPath><clipPath id="clip65"><path d="M565.2 419.46C569.48 329.54 605.83 239.85 673.72 186.46C671.53 246.45 649.99 325.14 633.03 424.2L565.2 419.46Z"/></clipPath><clipPath id="clip66"><path d="M565.2 419.46C569.48 329.54 605.83 239.85 673.72 186.46C671.53 246.45 649.99 325.14 633.03 424.2L565.2 419.46Z"/></clipPath><clipPath id="clip67"><path d="M304 880L696 880C749.02 880 792 837.02 792 784C802 534 704.4 318 500 318C295.6 318 198 534 208 784C208 837.02 250.98 880 304 880Z"/></clipPath><clipPath id="clip68"><path d="M420 700L580 700C580 806.6 420 806.6 420 700Z"/></clipPath></defs><path d="M458 886C458 913.61 414.12 936 360 936C305.88 936 262 913.61 262 886C262 858.39 305.88 836 360 836C414.12 836 458 858.39 458 886Z" fill="#D81E57"/><path d="M738 886C738 913.61 694.12 936 640 936C585.88 936 542 913.61 542 886C542 858.39 585.88 836 640 836C694.12 836 738 858.39 738 886Z" fill="#D81E57"/><path d="M434.8 419.46C430.52 329.54 394.17 239.85 326.28 186.46C328.47 246.45 350.01 325.14 366.97 424.2L434.8 419.46Z" fill="#FFC72C" stroke="#FFC72C" stroke-width="30" stroke-linejoin="round"/><path d="M482.99 305.82L271.69 294.53L273.22 316.48L484.53 327.77L482.99 305.82Z" fill="#F29A12" clip-path="url(#clip63)"/><path d="M479.08 249.96L267.78 238.67L269.32 260.61L480.62 271.9L479.08 249.96Z" fill="#F29A12" clip-path="url(#clip64)"/><path d="M565.2 419.46C569.48 329.54 605.83 239.85 673.72 186.46C671.53 246.45 649.99 325.14 633.03 424.2L565.2 419.46Z" fill="#FFC72C" stroke="#FFC72C" stroke-width="30" stroke-linejoin="round"/><path d="M517.01 305.82L728.31 294.53L726.78 316.48L515.47 327.77L517.01 305.82Z" fill="#F29A12" clip-path="url(#clip65)"/><path d="M520.92 249.96L732.22 238.67L730.68 260.61L519.38 271.9L520.92 249.96Z" fill="#F29A12" clip-path="url(#clip66)"/><path d="M276.67 669.37L220.33 775.32C210.74 793.37 188.34 800.22 170.29 790.62C152.25 781.03 145.4 758.63 154.99 740.58L211.33 634.63C220.92 616.59 243.33 609.74 261.37 619.33C279.41 628.92 286.26 651.33 276.67 669.37Z" fill="#FF2D6B"/><path d="M788.67 634.63L845.01 740.58C854.6 758.63 847.75 781.03 829.71 790.62C811.66 800.22 789.26 793.37 779.67 775.32L723.33 669.37C713.74 651.33 720.59 628.92 738.63 619.33C756.67 609.74 779.08 616.59 788.67 634.63Z" fill="#FF2D6B"/><path d="M304 880L696 880C749.02 880 792 837.02 792 784C802 534 704.4 318 500 318C295.6 318 198 534 208 784C208 837.02 250.98 880 304 880Z" fill="#FF2D6B"/><path d="M1074.54 888.02C1129.65 1147.33 1064.85 1380.8 929.8 1409.51C794.74 1438.22 640.58 1251.28 585.46 991.98C530.35 732.67 595.15 499.2 730.2 470.49C865.26 441.78 1019.42 628.72 1074.54 888.02Z" fill="#D81E57" clip-path="url(#clip67)"/><path d="M278.67 454.79L333.67 386.79C340.97 377.78 354.19 376.38 363.21 383.67C372.22 390.97 373.62 404.19 366.33 413.21L311.33 481.21C304.03 490.22 290.81 491.62 281.79 484.33C272.78 477.03 271.38 463.81 278.67 454.79Z" fill="#FFF6EC"/><path d="M288 532C288 540.84 280.84 548 272 548C263.16 548 256 540.84 256 532C256 523.16 263.16 516 272 516C280.84 516 288 523.16 288 532Z" fill="#FFF6EC"/><path d="M482 572C482 626.12 447.08 670 404 670C360.92 670 326 626.12 326 572C326 517.88 360.92 474 404 474C447.08 474 482 517.88 482 572Z" fill="#FFF6EC"/><path d="M451.12 574.76C451.12 599.06 431.42 618.76 407.12 618.76C382.82 618.76 363.12 599.06 363.12 574.76C363.12 550.46 382.82 530.76 407.12 530.76C431.42 530.76 451.12 550.46 451.12 574.76ZM406.24 557.16C406.24 548.9 399.54 542.2 391.28 542.2C383.02 542.2 376.32 548.9 376.32 557.16C376.32 565.42 383.02 572.12 391.28 572.12C399.54 572.12 406.24 565.42 406.24 557.16Z" fill="#1B1626"/><path d="M406.24 557.16C406.24 565.42 399.54 572.12 391.28 572.12C383.02 572.12 376.32 565.42 376.32 557.16C376.32 548.9 383.02 542.2 391.28 542.2C399.54 542.2 406.24 548.9 406.24 557.16Z" fill="#FFF6EC"/><path d="M674 572C674 626.12 639.08 670 596 670C552.92 670 518 626.12 518 572C518 517.88 552.92 474 596 474C639.08 474 674 517.88 674 572Z" fill="#FFF6EC"/><path d="M643.12 574.76C643.12 599.06 623.42 618.76 599.12 618.76C574.82 618.76 555.12 599.06 555.12 574.76C555.12 550.46 574.82 530.76 599.12 530.76C623.42 530.76 643.12 550.46 643.12 574.76ZM598.24 557.16C598.24 548.9 591.54 542.2 583.28 542.2C575.02 542.2 568.32 548.9 568.32 557.16C568.32 565.42 575.02 572.12 583.28 572.12C591.54 572.12 598.24 565.42 598.24 557.16Z" fill="#1B1626"/><path d="M598.24 557.16C598.24 565.42 591.54 572.12 583.28 572.12C575.02 572.12 568.32 565.42 568.32 557.16C568.32 548.9 575.02 542.2 583.28 542.2C591.54 542.2 598.24 548.9 598.24 557.16Z" fill="#FFF6EC"/><path d="M420 700L580 700C580 806.6 420 806.6 420 700Z" fill="#1B1626"/><path d="M556 780.36C556 796.66 537.38 809.88 514.4 809.88C491.42 809.88 472.8 796.66 472.8 780.36C472.8 764.06 491.42 750.84 514.4 750.84C537.38 750.84 556 764.06 556 780.36Z" fill="#D81E57" clip-path="url(#clip68)"/><path d="M510.6 698L540.6 698L525.6 726L510.6 698Z" fill="#FFF6EC" stroke="#FFF6EC" stroke-width="8" stroke-linejoin="round"/></g></g><path d="M1535.32 1018.27L1535.32 468.27C1535.32 426.84 1501.74 393.27 1460.32 393.27C1418.89 393.27 1385.32 426.84 1385.32 468.27L1385.32 1018.27C1385.32 1059.69 1418.89 1093.27 1460.32 1093.27C1501.74 1093.27 1535.32 1059.69 1535.32 1018.27ZM1784.32 1022.27L1784.32 644.27C1784.32 602.84 1750.74 569.27 1709.32 569.27C1667.89 569.27 1634.32 602.84 1634.32 644.27L1634.32 1022.27C1634.32 1063.69 1667.89 1097.27 1709.32 1097.27C1750.74 1097.27 1784.32 1063.69 1784.32 1022.27ZM2134.32 1022.27L2134.32 808.27C2135.32 672.96 2022.94 563.27 1884.32 563.27C1745.69 563.27 1633.32 672.96 1633.32 808.27L1785.32 808.27C1785.32 742.54 1829.64 689.27 1884.32 689.27C1938.99 689.27 1983.32 742.54 1984.32 808.27L1984.32 1022.27C1984.32 1063.69 2017.89 1097.27 2059.32 1097.27C2100.74 1097.27 2134.32 1063.69 2134.32 1022.27ZM2750.32 833.27C2750.32 684.15 2630.33 563.27 2482.32 563.27C2334.3 563.27 2214.32 684.15 2214.32 833.27C2214.32 982.38 2334.3 1103.27 2482.32 1103.27C2630.33 1103.27 2750.32 982.38 2750.32 833.27ZM2598.32 833.27C2598.32 912.8 2546.38 977.27 2482.32 977.27C2418.25 977.27 2366.32 912.8 2366.32 833.27C2366.32 753.74 2418.25 689.27 2482.32 689.27C2546.38 689.27 2598.32 753.74 2598.32 833.27ZM2753.32 1022.27L2753.32 418.27C2753.32 376.84 2719.74 343.27 2678.32 343.27C2636.89 343.27 2603.32 376.84 2603.32 418.27L2603.32 1022.27C2603.32 1063.69 2636.89 1097.27 2678.32 1097.27C2719.74 1097.27 2753.32 1063.69 2753.32 1022.27ZM2999.32 1022.27L2999.32 644.27C2999.32 602.84 2965.74 569.27 2924.32 569.27C2882.89 569.27 2849.32 602.84 2849.32 644.27L2849.32 1022.27C2849.32 1063.69 2882.89 1097.27 2924.32 1097.27C2965.74 1097.27 2999.32 1063.69 2999.32 1022.27ZM3631.99 772.67C3602.62 649.71 3488.86 562.77 3358.02 563.27C3227.18 563.77 3114.14 651.59 3085.78 774.76C3057.43 897.93 3121.32 1023.62 3239.66 1077.45C3358 1131.29 3499.22 1098.92 3579.77 999.49C3603.82 968.27 3596.49 925.59 3563.42 904.17C3530.34 882.75 3484.04 890.7 3460 921.92C3423.17 974.95 3358.61 992.21 3304.52 963.5C3250.42 934.79 3221.21 867.75 3234.17 802.06C3247.13 736.37 3298.81 689.53 3358.62 689.27C3418.44 689 3470.44 735.37 3483.87 800.95L3631.99 772.67ZM3155.13 884.87L3631.99 884.87L3631.99 769.67L3155.13 769.67L3155.13 884.87ZM4234.66 772.67C4205.29 649.71 4091.53 562.77 3960.69 563.27C3829.85 563.77 3716.81 651.59 3688.46 774.76C3660.1 897.93 3724 1023.62 3842.33 1077.45C3960.67 1131.29 4101.89 1098.92 4182.45 999.49C4206.49 968.27 4199.16 925.59 4166.09 904.17C4133.01 882.75 4086.71 890.7 4062.67 921.92C4025.84 974.95 3961.28 992.21 3907.19 963.5C3853.09 934.79 3823.88 867.75 3836.84 802.06C3849.81 736.37 3901.48 689.53 3961.3 689.27C4021.11 689 4073.11 735.37 4086.54 800.95L4234.66 772.67ZM3757.8 884.87L4234.66 884.87L4234.66 769.67L3757.8 769.67L3757.8 884.87ZM3611.99 884.87L3757.99 884.87L3757.99 769.67L3611.99 769.67L3611.99 884.87Z" fill="#1B1626" fill-rule="nonzero"/><path d="M3018.28 410.99C3018.28 359.09 2976.21 317.03 2924.32 317.03C2872.42 317.03 2830.36 359.09 2830.36 410.99C2830.36 462.88 2872.42 504.95 2924.32 504.95C2976.21 504.95 3018.28 462.88 3018.28 410.99Z" fill="#FF2D6B"/></svg>
